G04 Layer_Color=8388736*
%FSLAX25Y25*%
%MOIN*%
G70*
G01*
G75*
%ADD32R,0.06300X0.10800*%
%ADD33R,0.05300X0.10800*%
%ADD34R,0.10800X0.06300*%
G04:AMPARAMS|DCode=35|XSize=362.33mil|YSize=362.33mil|CornerRadius=39.43mil|HoleSize=0mil|Usage=FLASHONLY|Rotation=90.000|XOffset=0mil|YOffset=0mil|HoleType=Round|Shape=RoundedRectangle|*
%AMROUNDEDRECTD35*
21,1,0.36233,0.28346,0,0,90.0*
21,1,0.28346,0.36233,0,0,90.0*
1,1,0.07887,0.14173,0.14173*
1,1,0.07887,0.14173,-0.14173*
1,1,0.07887,-0.14173,-0.14173*
1,1,0.07887,-0.14173,0.14173*
%
%ADD35ROUNDEDRECTD35*%
%ADD36C,0.06800*%
%ADD37O,0.07099X0.08674*%
%ADD38R,0.07099X0.08674*%
%ADD39C,0.03950*%
G54D32*
X146096Y184591D02*
D03*
G54D33*
X138296D02*
D03*
X130396D02*
D03*
X122596D02*
D03*
X114596D02*
D03*
X106796D02*
D03*
X98996D02*
D03*
X91096D02*
D03*
X90996Y123091D02*
D03*
X98896D02*
D03*
X106696D02*
D03*
X114596Y123191D02*
D03*
X122496D02*
D03*
X130296D02*
D03*
X138296D02*
D03*
X146096D02*
D03*
G54D34*
X82896Y173591D02*
D03*
Y165791D02*
D03*
Y157991D02*
D03*
Y149991D02*
D03*
Y142191D02*
D03*
Y134191D02*
D03*
G54D35*
X35827Y31496D02*
D03*
Y161417D02*
D03*
G54D36*
X22047Y122441D02*
D03*
X29921D02*
D03*
X53543D02*
D03*
X14173D02*
D03*
X45669D02*
D03*
X37795D02*
D03*
G54D37*
X121339Y65748D02*
D03*
X111339D02*
D03*
X101339D02*
D03*
G54D38*
X91339D02*
D03*
G54D39*
X144882Y162992D02*
D03*
X98819Y131102D02*
D03*
X130315Y169291D02*
D03*
X92126Y131890D02*
D03*
X91732Y141732D02*
D03*
X92520Y174409D02*
D03*
X96456Y146063D02*
D03*
X29528Y33465D02*
D03*
X24409Y167323D02*
D03*
X81890Y126378D02*
D03*
X78347Y112992D02*
D03*
X130709Y142913D02*
D03*
X114567Y133071D02*
D03*
X146063Y132677D02*
D03*
X81102Y68504D02*
D03*
X50787Y62992D02*
D03*
X114173Y168898D02*
D03*
X109308Y165653D02*
D03*
X137795Y134252D02*
D03*
X101575Y153937D02*
D03*
X69291Y142126D02*
D03*
M02*
