G04 Layer_Color=16711935*
%FSLAX25Y25*%
%MOIN*%
G70*
G01*
G75*
%ADD51C,0.00050*%
G54D51*
X112084Y96444D02*
X112052Y97443D01*
X111957Y98438D01*
X111800Y99424D01*
X111579Y100399D01*
X111298Y101358D01*
X110956Y102297D01*
X110555Y103212D01*
X110098Y104101D01*
X109584Y104958D01*
X109018Y105781D01*
X108400Y106567D01*
X107733Y107311D01*
X107021Y108012D01*
X106266Y108667D01*
X105471Y109272D01*
X104639Y109826D01*
X103773Y110325D01*
X102878Y110769D01*
X101956Y111155D01*
X101012Y111482D01*
X100049Y111748D01*
X99071Y111953D01*
X98081Y112095D01*
X97085Y112174D01*
X96086Y112190D01*
X95088Y112143D01*
X94095Y112032D01*
X93111Y111858D01*
X92140Y111623D01*
X91185Y111326D01*
X90252Y110969D01*
X89343Y110554D01*
X88462Y110082D01*
X87613Y109555D01*
X86799Y108976D01*
X86023Y108345D01*
X85289Y107668D01*
X84600Y106944D01*
X83957Y106179D01*
X83365Y105374D01*
X82824Y104533D01*
X82339Y103660D01*
X81909Y102758D01*
X81538Y101830D01*
X81226Y100881D01*
X80975Y99913D01*
X80786Y98932D01*
X80659Y97941D01*
X80596Y96944D01*
Y95944D01*
X80659Y94947D01*
X80786Y93956D01*
X80975Y92975D01*
X81226Y92007D01*
X81538Y91058D01*
X81909Y90130D01*
X82339Y89228D01*
X82824Y88354D01*
X83365Y87514D01*
X83957Y86709D01*
X84600Y85944D01*
X85289Y85220D01*
X86023Y84542D01*
X86799Y83912D01*
X87613Y83333D01*
X88462Y82806D01*
X89343Y82334D01*
X90252Y81919D01*
X91185Y81562D01*
X92140Y81265D01*
X93111Y81030D01*
X94095Y80856D01*
X95088Y80746D01*
X96086Y80698D01*
X97085Y80714D01*
X98081Y80793D01*
X99071Y80935D01*
X100049Y81140D01*
X101012Y81406D01*
X101956Y81733D01*
X102878Y82119D01*
X103773Y82563D01*
X104639Y83062D01*
X105471Y83616D01*
X106266Y84221D01*
X107021Y84876D01*
X107733Y85576D01*
X108400Y86321D01*
X109018Y87107D01*
X109584Y87930D01*
X110097Y88787D01*
X110555Y89675D01*
X110956Y90591D01*
X111298Y91530D01*
X111579Y92489D01*
X111800Y93464D01*
X111957Y94450D01*
X112052Y95445D01*
X112084Y96444D01*
X188679Y171847D02*
X188856Y169150D01*
X188177Y174371D02*
X188679Y171847D01*
X187349Y176809D02*
X188177Y174371D01*
X186211Y179117D02*
X187349Y176809D01*
X184781Y181257D02*
X186211Y179117D01*
X183084Y183192D02*
X184781Y181257D01*
X181149Y184889D02*
X183084Y183192D01*
X179009Y186319D02*
X181149Y184889D01*
X176701Y187457D02*
X179009Y186319D01*
X174263Y188285D02*
X176701Y187457D01*
X171739Y188787D02*
X174263Y188285D01*
X169042Y188964D02*
X171739Y188787D01*
X188856Y23738D02*
X188856Y169150D01*
X169042Y3924D02*
X171739Y4101D01*
X174263Y4603D01*
X176701Y5430D01*
X179009Y6569D01*
X181149Y7999D01*
X183084Y9696D01*
X184781Y11631D01*
X186211Y13771D01*
X187349Y16079D01*
X188177Y18517D01*
X188679Y21041D01*
X188856Y23738D01*
X23630Y3924D02*
X169042Y3924D01*
X18409Y4603D02*
X20933Y4101D01*
X23630Y3924D01*
X3816Y169150D02*
X3993Y171847D01*
X3816Y23738D02*
Y169150D01*
Y23738D02*
X3993Y21041D01*
X4495Y18517D01*
X5323Y16079D01*
X6461Y13771D01*
X7891Y11631D01*
X9588Y9696D01*
X11523Y7999D01*
X13663Y6569D01*
X15971Y5430D01*
X18409Y4603D01*
Y188285D02*
X20933Y188787D01*
X15971Y187457D02*
X18409Y188285D01*
X20933Y188787D02*
X23630Y188964D01*
X13663Y186319D02*
X15971Y187457D01*
X11523Y184889D02*
X13663Y186319D01*
X9588Y183192D02*
X11523Y184889D01*
X7891Y181257D02*
X9588Y183192D01*
X6461Y179117D02*
X7891Y181257D01*
X5323Y176809D02*
X6461Y179117D01*
X4495Y174371D02*
X5323Y176809D01*
X3993Y171847D02*
X4495Y174371D01*
X23630Y188964D02*
X169042Y188964D01*
M02*
