G04 Layer_Physical_Order=2*
G04 Layer_Color=16711680*
%FSLAX25Y25*%
%MOIN*%
G70*
G01*
G75*
%ADD14C,0.01181*%
%ADD15C,0.02362*%
%ADD16C,0.06000*%
%ADD17O,0.06299X0.07874*%
%ADD18R,0.06299X0.07874*%
%ADD19C,0.03150*%
G04:AMPARAMS|DCode=20|XSize=23.62mil|YSize=47.24mil|CornerRadius=0mil|HoleSize=0mil|Usage=FLASHONLY|Rotation=270.000|XOffset=0mil|YOffset=0mil|HoleType=Round|Shape=Octagon|*
%AMOCTAGOND20*
4,1,8,0.02362,0.00591,0.02362,-0.00591,0.01772,-0.01181,-0.01772,-0.01181,-0.02362,-0.00591,-0.02362,0.00591,-0.01772,0.01181,0.01772,0.01181,0.02362,0.00591,0.0*
%
%ADD20OCTAGOND20*%

%ADD21R,0.04331X0.02362*%
%ADD22R,0.03937X0.04134*%
%ADD23R,0.04134X0.03937*%
%ADD24R,0.07087X0.05118*%
%ADD25R,0.05118X0.07087*%
%ADD26R,0.03740X0.03543*%
%ADD27R,0.03543X0.03740*%
%ADD28R,0.08661X0.06693*%
%ADD29R,0.08661X0.02362*%
%ADD30O,0.08661X0.02362*%
%ADD31C,0.01969*%
G54D14*
X30807Y27323D02*
X31193Y26937D01*
X144390Y147244D02*
Y154724D01*
Y156988D01*
X138583Y162795D02*
X144390Y156988D01*
X138583Y162795D02*
X144685D01*
X144882Y162992D01*
X123228Y163976D02*
X124606D01*
X125197Y164567D02*
X130315D01*
X124606Y163976D02*
X125197Y164567D01*
X130315D02*
Y169291D01*
X41535Y27831D02*
Y33071D01*
X40642Y26937D02*
X41535Y27831D01*
X40642Y14279D02*
Y19457D01*
Y14279D02*
X40748Y14173D01*
X30906Y19169D02*
X31193Y19457D01*
X30906Y16535D02*
Y19169D01*
X28543Y14173D02*
X30906Y16535D01*
X94744Y164173D02*
X96713Y166142D01*
X74914Y72793D02*
Y92642D01*
X35630Y161417D02*
Y168110D01*
X35433Y161221D02*
X35630Y161417D01*
X18110Y161713D02*
X25492D01*
X25984Y153150D02*
Y153740D01*
X23622Y150787D02*
X25984Y153150D01*
X23622Y148228D02*
Y150787D01*
X23425Y148031D02*
X23622Y148228D01*
X35433Y148622D02*
Y153740D01*
Y148622D02*
X36024Y148031D01*
X17717Y89764D02*
Y91732D01*
X24016Y27461D02*
X30669D01*
X30807Y27323D01*
Y32185D01*
X29528Y33465D02*
X30807Y32185D01*
X24409Y162795D02*
Y167323D01*
Y162795D02*
X25492Y161713D01*
X25984Y161221D01*
X87854Y132343D02*
Y133855D01*
X81890Y126378D02*
X87854Y132343D01*
X74572Y109217D02*
X78347Y112992D01*
X74572Y92984D02*
Y109217D01*
Y92984D02*
X74914Y92642D01*
X96398Y146004D02*
X96456Y146063D01*
X29921Y122441D02*
Y123622D01*
X33024D01*
Y124417D01*
X22047Y122441D02*
Y124016D01*
X25150D01*
Y124417D01*
X23425Y130709D02*
Y148031D01*
X28543Y5368D02*
X31156Y2756D01*
X28543Y5368D02*
Y14173D01*
X87854Y133855D02*
X91049Y137050D01*
Y137843D01*
X91732Y138526D01*
Y141732D01*
X114567Y108691D02*
Y133071D01*
X100787Y66299D02*
X101339Y65748D01*
X117717Y108882D02*
Y126378D01*
X111339Y65748D02*
X111417Y65827D01*
X120866Y109073D02*
Y123228D01*
X130315Y143307D02*
Y147835D01*
Y143307D02*
X130709Y142913D01*
X85886Y155315D02*
X94744Y164173D01*
X82683Y157677D02*
X93903Y168898D01*
X75197Y63833D02*
Y72387D01*
X74853Y72732D02*
X75197Y72387D01*
X74853Y72732D02*
Y72732D01*
X74914Y72793D01*
X66535Y55172D02*
X75197Y63833D01*
X31156Y2756D02*
X38189D01*
X66535Y31102D02*
Y55172D01*
X38189Y2756D02*
X41142Y5709D01*
X46105D01*
X50197Y14764D02*
X66535Y31102D01*
X46105Y5709D02*
X50197Y9801D01*
Y14764D01*
X93903Y168898D02*
X99266D01*
X99266Y168898D01*
X107820D01*
X109308Y165653D02*
X109797Y166142D01*
X96713D02*
X109797D01*
X107820Y168898D02*
X107922Y168999D01*
X114072D01*
X114173Y168898D01*
X125591Y134252D02*
X137795D01*
X117717Y126378D02*
X125591Y134252D01*
X120866Y123228D02*
X128740Y131102D01*
X136212D01*
X141732Y132677D02*
X146063D01*
X140157Y131102D02*
X141732Y132677D01*
X139378Y131102D02*
X140157D01*
X136212D02*
X136409Y130905D01*
X139181D01*
X139378Y131102D01*
X88189Y153937D02*
X101575D01*
X86876Y152624D02*
X88189Y153937D01*
X100787Y66299D02*
Y70443D01*
X120079Y67008D02*
X121339Y65748D01*
X117913Y87569D02*
Y105344D01*
X120276Y86591D02*
Y106323D01*
X117717Y108882D02*
X120276Y106323D01*
X120079Y83053D02*
X122638Y85612D01*
Y107301D01*
X120866Y109073D02*
X122638Y107301D01*
X100787Y70443D02*
X117913Y87569D01*
X114567Y108691D02*
X117913Y105344D01*
X120079Y67008D02*
Y83053D01*
X111417Y77732D02*
X120276Y86591D01*
X111417Y65827D02*
Y77732D01*
X37795Y122441D02*
Y127118D01*
X33024Y124417D02*
X35433Y126827D01*
Y128097D01*
X37795Y127118D02*
X44142Y133465D01*
X35433Y128097D02*
X43163Y135827D01*
X44142Y133465D02*
X57087D01*
X43163Y135827D02*
X56108D01*
X41206Y140551D02*
X54151D01*
X53543Y122441D02*
X57480Y126378D01*
X23425Y130709D02*
X31364D01*
X42185Y138189D02*
X55130D01*
X25150Y124417D02*
X29079Y128347D01*
X32342D01*
X42185Y138189D01*
X31364Y130709D02*
X41206Y140551D01*
X98819Y131102D02*
X99413D01*
X98819D02*
X99213Y131496D01*
Y133858D01*
X101378Y136024D01*
X103543D01*
X79176Y157677D02*
X82683D01*
X80512Y155315D02*
X85886D01*
X75436Y153937D02*
X79176Y157677D01*
X76772Y151575D02*
X80512Y155315D01*
X78004Y138779D02*
X83422Y144198D01*
X85374Y146004D02*
X96398D01*
X83333Y152624D02*
X86876D01*
X79528Y148819D02*
X83333Y152624D01*
X67537Y153937D02*
X75436D01*
X68515Y151575D02*
X76772D01*
X69100Y148819D02*
X79528D01*
X54151Y140551D02*
X67537Y153937D01*
X55130Y138189D02*
X68515Y151575D01*
X56108Y135827D02*
X69100Y148819D01*
X65748Y142126D02*
X69291D01*
X57087Y133465D02*
X65748Y142126D01*
X57480Y126378D02*
X63386D01*
X75787Y138779D01*
X83422Y144198D02*
X83568D01*
X85374Y146004D01*
X75787Y138779D02*
X78004D01*
G54D15*
X17717Y91732D02*
X19291D01*
X19705Y92146D01*
X47441Y26870D02*
Y33071D01*
Y26870D02*
X47638Y26673D01*
X46063Y14764D02*
X46654Y14173D01*
X43524Y23197D02*
X44520D01*
X47441Y26870D02*
X51378D01*
X34449Y9646D02*
Y14173D01*
X24016Y15748D02*
Y21358D01*
X22441Y14173D02*
X24016Y15748D01*
X22441Y8268D02*
Y14173D01*
Y8268D02*
X22441Y8268D01*
X24016Y21358D02*
X25689Y23031D01*
X52756Y32972D02*
Y37008D01*
X51968Y37795D02*
X52756Y37008D01*
X51476Y37303D02*
X51968Y37795D01*
X38785Y37303D02*
X51476D01*
X36114Y34632D02*
X38785Y37303D01*
X36114Y23910D02*
Y34632D01*
X35433Y23228D02*
X36114Y23910D01*
X31390Y23228D02*
X35433D01*
X31193Y23031D02*
X31390Y23228D01*
X25689Y23031D02*
X31193D01*
X138287Y146850D02*
Y154724D01*
X134252Y158760D02*
X138287Y154724D01*
X130315Y158760D02*
X134252D01*
X92126Y131890D02*
Y133951D01*
X103543Y173228D02*
X112415D01*
X138189Y174409D02*
X138583Y174016D01*
Y168701D02*
Y174016D01*
X123228Y169882D02*
Y174016D01*
X122835Y174409D02*
X123228Y174016D01*
X122835Y174409D02*
X138189D01*
X93701Y173228D02*
X103543D01*
X92520Y174409D02*
X93701Y173228D01*
X41929Y148031D02*
Y155315D01*
X41535Y168110D02*
X47933D01*
X48425Y167618D01*
X41535Y158071D02*
Y168110D01*
X40945Y157480D02*
X41535Y158071D01*
X35433Y157480D02*
X40945D01*
X35433Y157480D02*
X35433Y157480D01*
X40945Y156299D02*
Y157480D01*
Y156299D02*
X41929Y155315D01*
X22047Y157480D02*
X25984D01*
X20177Y155610D02*
X22047Y157480D01*
X18110Y155610D02*
X20177D01*
X25984Y157480D02*
X29921D01*
X30512Y158071D01*
Y171063D01*
X32283Y172835D01*
X29331Y144291D02*
X30315Y143307D01*
X39370D01*
X41929Y145866D01*
Y148031D01*
X138583Y168701D02*
X146260D01*
X56437Y87146D02*
X58661Y89370D01*
X41339Y82146D02*
X57224D01*
X46850Y87146D02*
X56437D01*
X59055Y89370D02*
X61417Y87008D01*
X66831D01*
X66929Y86910D01*
X63091Y80807D02*
X66929D01*
X59055Y77559D02*
X59842D01*
X60433Y78937D02*
X60827Y78543D01*
X59842Y77559D02*
X60827Y78543D01*
X63091Y80807D01*
X9941Y155610D02*
X18110D01*
X14173Y122441D02*
X18110Y118504D01*
Y116142D02*
Y118504D01*
Y116142D02*
X24016D01*
X8661Y91732D02*
X16142D01*
X27559Y77146D02*
X29134D01*
Y92146D02*
X35807D01*
X19705D02*
X29134D01*
X35807D02*
X37402Y90551D01*
X28740Y105709D02*
Y111417D01*
X24016Y116142D02*
X28740Y111417D01*
X12008Y101772D02*
Y102756D01*
Y101772D02*
X17717Y96063D01*
Y91732D02*
Y96063D01*
X103543Y141929D02*
Y148031D01*
X32283Y172835D02*
X52362D01*
X92474Y148957D02*
X94442Y150925D01*
X29134Y137402D02*
X29331Y137598D01*
Y144291D01*
Y148031D01*
X7087Y137402D02*
X17323D01*
X59055Y68110D02*
Y77559D01*
X57224Y82146D02*
X60433Y78937D01*
X77165Y175591D02*
Y185039D01*
Y166535D02*
Y175591D01*
Y185039D02*
X82677D01*
X92520Y175197D01*
Y174409D02*
Y175197D01*
X65354Y175591D02*
Y185039D01*
Y166535D02*
Y175591D01*
X54626Y168110D02*
X63779D01*
X65354Y166535D01*
X52362Y172835D02*
X54626Y170571D01*
Y168110D02*
Y170571D01*
X46850Y87146D02*
Y94488D01*
X29134Y77146D02*
X33839D01*
X37402Y80709D01*
Y90551D01*
X9449Y79921D02*
X18898D01*
Y75590D02*
Y79921D01*
Y75590D02*
X22441Y72047D01*
X34646D01*
X41339Y78740D01*
X3543Y95276D02*
X6693Y98425D01*
Y137795D01*
X9449Y79921D02*
Y85039D01*
X3543Y88195D02*
X4927Y86811D01*
X7677D01*
X9449Y85039D01*
X3543Y88195D02*
Y95276D01*
X103543Y141929D02*
X104134Y142520D01*
X119291D01*
Y148819D01*
X124409Y153937D01*
X130118D01*
X130315Y153740D01*
Y158760D01*
X46850Y94488D02*
X72047Y119685D01*
X52756Y32972D02*
X57382D01*
X59055Y34646D01*
Y68110D01*
X112415Y173228D02*
X113734Y174547D01*
X115164Y158760D02*
X130315D01*
X103543Y161417D02*
X105512Y159449D01*
X113734Y174547D02*
X113734D01*
X114128Y174941D01*
X118156D01*
X118687Y174409D01*
X122835D01*
X110584Y159311D02*
X114612D01*
X110447Y159449D02*
X110584Y159311D01*
X105512Y159449D02*
X110447D01*
X114612Y159311D02*
X115164Y158760D01*
X142967Y138051D02*
X148819Y143903D01*
Y160053D01*
X149744Y160978D01*
Y165217D01*
X146260Y168701D02*
X149744Y165217D01*
X34449Y9646D02*
X35433Y8661D01*
X46063Y14764D02*
X46850Y15551D01*
X44520Y23197D02*
X46850Y20866D01*
Y15551D02*
Y20866D01*
X70866Y68110D02*
Y72921D01*
X71961Y74016D01*
Y86614D01*
X71666Y86910D02*
X71961Y86614D01*
X66929Y86910D02*
X71666D01*
X63386Y59535D02*
X71961Y68110D01*
X35433Y8661D02*
X44882D01*
X46654Y10433D01*
Y14173D01*
X52756Y26870D02*
X56791D01*
X63386Y33465D01*
Y59535D01*
X83858Y65748D02*
X91339D01*
X81102Y68504D02*
X83858Y65748D01*
X52756Y68110D02*
X59055D01*
X50787Y66142D02*
X52756Y68110D01*
X50787Y62992D02*
Y66142D01*
X139426Y138189D02*
X139564Y138051D01*
X142967D01*
X101364Y148031D02*
X103543D01*
X94442Y150925D02*
X98470D01*
X101364Y148031D01*
X45669Y122441D02*
Y124029D01*
X46654Y125013D01*
Y126181D01*
X49803Y129331D01*
X112782Y138189D02*
X139426D01*
X101657Y127064D02*
X112782Y138189D01*
X72047Y119685D02*
X82284D01*
X89663Y127064D01*
X101657D01*
X92126Y133951D02*
X100104Y141929D01*
X103543D01*
X41929Y148031D02*
X53937D01*
X77165Y160630D02*
Y166535D01*
X53937Y148031D02*
X63386Y157480D01*
X74016D01*
X77165Y160630D01*
X83841Y148957D02*
X92474D01*
X79766Y144882D02*
X83841Y148957D01*
X77615Y144882D02*
X79766D01*
X49803Y129331D02*
X62064D01*
X77615Y144882D01*
X41339Y78740D02*
Y103543D01*
X45669Y107874D01*
Y122441D01*
X7087Y137402D02*
X8268Y138583D01*
Y153937D01*
X9941Y155610D01*
G54D16*
X22047Y122441D02*
D03*
X29921D02*
D03*
X53543D02*
D03*
X14173D02*
D03*
X45669D02*
D03*
X37795D02*
D03*
G54D17*
X121339Y65748D02*
D03*
X111339D02*
D03*
X101339D02*
D03*
G54D18*
X91339D02*
D03*
G54D19*
X144882Y162992D02*
D03*
X98819Y131102D02*
D03*
X130315Y169291D02*
D03*
X92126Y131890D02*
D03*
X91732Y141732D02*
D03*
X92520Y174409D02*
D03*
X96456Y146063D02*
D03*
X29528Y33465D02*
D03*
X24409Y167323D02*
D03*
X81890Y126378D02*
D03*
X78347Y112992D02*
D03*
X130709Y142913D02*
D03*
X114567Y133071D02*
D03*
X146063Y132677D02*
D03*
X81102Y68504D02*
D03*
X50787Y62992D02*
D03*
X114173Y168898D02*
D03*
X109308Y165653D02*
D03*
X137795Y134252D02*
D03*
X101575Y153937D02*
D03*
X69291Y142126D02*
D03*
G54D20*
X31193Y19457D02*
D03*
X25984Y153740D02*
D03*
G54D21*
X31193Y23197D02*
D03*
Y26937D02*
D03*
X40642D02*
D03*
Y23197D02*
D03*
Y19457D02*
D03*
X25984Y157480D02*
D03*
Y161221D02*
D03*
X35433D02*
D03*
Y157480D02*
D03*
Y153740D02*
D03*
G54D22*
X130315Y164862D02*
D03*
Y158760D02*
D03*
X18110Y161713D02*
D03*
Y155610D02*
D03*
X52756Y26870D02*
D03*
Y32972D02*
D03*
X66929Y86910D02*
D03*
Y80807D02*
D03*
X24016Y27461D02*
D03*
Y21358D02*
D03*
G54D23*
X144390Y154724D02*
D03*
X138287D02*
D03*
X144390Y146850D02*
D03*
X138287D02*
D03*
X48524Y168110D02*
D03*
X54626D02*
D03*
G54D24*
X103543Y173228D02*
D03*
Y161417D02*
D03*
X59055Y89370D02*
D03*
Y77559D02*
D03*
X18898Y91732D02*
D03*
Y79921D02*
D03*
X9449Y91732D02*
D03*
Y79921D02*
D03*
G54D25*
X34252Y8268D02*
D03*
X22441D02*
D03*
X29134Y137402D02*
D03*
X17323D02*
D03*
X70866Y68110D02*
D03*
X59055D02*
D03*
X77165Y175591D02*
D03*
X65354D02*
D03*
X77165Y185039D02*
D03*
X65354D02*
D03*
X77165Y166535D02*
D03*
X65354D02*
D03*
G54D26*
X123228Y163976D02*
D03*
Y169882D02*
D03*
X138583Y162795D02*
D03*
Y168701D02*
D03*
X130315Y147835D02*
D03*
Y153740D02*
D03*
X103543Y136024D02*
D03*
Y141929D02*
D03*
G54D27*
X29331Y148031D02*
D03*
X23425D02*
D03*
X36024D02*
D03*
X41929D02*
D03*
X35630Y168110D02*
D03*
X41535D02*
D03*
X34449Y14173D02*
D03*
X28543D02*
D03*
X40748D02*
D03*
X46654D02*
D03*
X41535Y33071D02*
D03*
X47441D02*
D03*
G54D28*
X29724Y102756D02*
D03*
X13583D02*
D03*
G54D29*
X29134Y77146D02*
D03*
Y82146D02*
D03*
Y87146D02*
D03*
Y92146D02*
D03*
X48031Y77146D02*
D03*
Y82146D02*
D03*
Y87146D02*
D03*
G54D30*
Y92146D02*
D03*
G54D31*
X43110Y23197D02*
X43524D01*
X47000Y26673D01*
X47638D01*
X48031D01*
M02*
