G04 Layer_Color=2752767*
%FSLAX25Y25*%
%MOIN*%
G70*
G01*
G75*
%ADD52C,0.00200*%
%ADD53C,0.00267*%
%ADD54C,0.01000*%
%ADD55C,0.01600*%
%ADD56C,0.00800*%
G54D52*
X21247Y121641D02*
Y123241D01*
X22847D01*
Y121641D01*
X21247D01*
X29121D02*
Y123241D01*
X30721D01*
Y121641D01*
X29121D01*
X52743D02*
Y123241D01*
X54343D01*
Y121641D01*
X52743D01*
X13373D02*
Y123241D01*
X14973D01*
Y121641D01*
X13373D01*
X44869D02*
Y123241D01*
X46469D01*
Y121641D01*
X44869D01*
X36995D02*
Y123241D01*
X38595D01*
Y121641D01*
X36995D01*
X144882Y162192D02*
X144082Y163792D01*
X145682D01*
X144882Y162192D01*
X98819Y130302D02*
X98019Y131902D01*
X99619D01*
X98819Y130302D01*
X130315Y168491D02*
X129515Y170091D01*
X131115D01*
X130315Y168491D01*
X92126Y131090D02*
X91326Y132690D01*
X92926D01*
X92126Y131090D01*
X91732Y140932D02*
X90932Y142532D01*
X92532D01*
X91732Y140932D01*
X92520Y173609D02*
X91720Y175209D01*
X93320D01*
X92520Y173609D01*
X96456Y145263D02*
X95657Y146863D01*
X97256D01*
X96456Y145263D01*
X29528Y32665D02*
X28728Y34265D01*
X30328D01*
X29528Y32665D01*
X24409Y166523D02*
X23609Y168123D01*
X25210D01*
X24409Y166523D01*
X81890Y125578D02*
X81090Y127178D01*
X82690D01*
X81890Y125578D01*
X78347Y112192D02*
X77547Y113792D01*
X79146D01*
X78347Y112192D01*
X130709Y142113D02*
X129909Y143713D01*
X131509D01*
X130709Y142113D01*
X114567Y132271D02*
X113767Y133871D01*
X115367D01*
X114567Y132271D01*
X146063Y131877D02*
X145263Y133477D01*
X146863D01*
X146063Y131877D01*
X81102Y67704D02*
X80302Y69304D01*
X81902D01*
X81102Y67704D01*
X50787Y62192D02*
X49987Y63792D01*
X51587D01*
X50787Y62192D01*
X114173Y168098D02*
X113373Y169698D01*
X114973D01*
X114173Y168098D01*
X109308Y164852D02*
X108508Y166453D01*
X110108D01*
X109308Y164852D01*
X137795Y133452D02*
X136995Y135052D01*
X138595D01*
X137795Y133452D01*
X101575Y153137D02*
X100775Y154737D01*
X102375D01*
X101575Y153137D01*
X69291Y141326D02*
X68491Y142926D01*
X70091D01*
X69291Y141326D01*
X201388Y54632D02*
X198988Y59431D01*
X203788D01*
X201388Y54632D01*
X198988Y42632D02*
Y47431D01*
X203788D01*
Y42632D01*
X198988D01*
G54D53*
X122139Y65748D02*
X121586Y66509D01*
X120691Y66218D01*
Y65278D01*
X121586Y64987D01*
X122139Y65748D01*
X112139D02*
X111586Y66509D01*
X110691Y66218D01*
Y65278D01*
X111586Y64987D01*
X112139Y65748D01*
X102139D02*
X101586Y66509D01*
X100691Y66218D01*
Y65278D01*
X101586Y64987D01*
X102139Y65748D01*
X92139D02*
X91586Y66509D01*
X90691Y66218D01*
Y65278D01*
X91586Y64987D01*
X92139Y65748D01*
G54D54*
X198988Y14030D02*
Y8032D01*
X201987D01*
X202987Y9031D01*
Y13030D01*
X201987Y14030D01*
X198988D01*
X204986Y12030D02*
Y8032D01*
Y10031D01*
X205986Y11030D01*
X206986Y12030D01*
X207985D01*
X210984Y8032D02*
X212984D01*
X211984D01*
Y12030D01*
X210984D01*
X215983Y8032D02*
X217982D01*
X216982D01*
Y14030D01*
X215983D01*
X220981Y8032D02*
X222980D01*
X221981D01*
Y14030D01*
X220981D01*
X231978D02*
Y8032D01*
X234977D01*
X235976Y9031D01*
Y13030D01*
X234977Y14030D01*
X231978D01*
X237976Y12030D02*
Y8032D01*
Y10031D01*
X238975Y11030D01*
X239975Y12030D01*
X240975D01*
X244973D02*
X246973D01*
X247972Y11030D01*
Y8032D01*
X244973D01*
X243974Y9031D01*
X244973Y10031D01*
X247972D01*
X249972Y12030D02*
Y9031D01*
X250971Y8032D01*
X251971Y9031D01*
X252971Y8032D01*
X253970Y9031D01*
Y12030D01*
X255970Y8032D02*
X257969D01*
X256969D01*
Y12030D01*
X255970D01*
X260968Y8032D02*
Y12030D01*
X263967D01*
X264967Y11030D01*
Y8032D01*
X268966Y6032D02*
X269965D01*
X270965Y7032D01*
Y12030D01*
X267966D01*
X266966Y11030D01*
Y9031D01*
X267966Y8032D01*
X270965D01*
X272964D02*
Y9031D01*
X273964D01*
Y8032D01*
X272964D01*
X253375Y54031D02*
X249376D01*
X253375Y58030D01*
Y59030D01*
X252375Y60030D01*
X250375D01*
X249376Y59030D01*
X255374Y54031D02*
X257373D01*
X256374D01*
Y60030D01*
X255374Y59030D01*
X318957Y54031D02*
X320956D01*
X319957D01*
Y60030D01*
X318957Y59030D01*
X323955Y54031D02*
X325955D01*
X324955D01*
Y60030D01*
X323955Y59030D01*
X328954Y54031D02*
Y55031D01*
X329954D01*
Y54031D01*
X328954D01*
X333952Y59030D02*
X334952Y60030D01*
X336951D01*
X337951Y59030D01*
Y58030D01*
X336951Y57030D01*
X337951Y56031D01*
Y55031D01*
X336951Y54031D01*
X334952D01*
X333952Y55031D01*
Y56031D01*
X334952Y57030D01*
X333952Y58030D01*
Y59030D01*
X334952Y57030D02*
X336951D01*
X339950Y54031D02*
X341950D01*
X340950D01*
Y60030D01*
X339950Y59030D01*
X344949Y54031D02*
X346948D01*
X345948D01*
Y60030D01*
X344949Y59030D01*
X349947Y54031D02*
Y58030D01*
X350947D01*
X351946Y57030D01*
Y54031D01*
Y57030D01*
X352946Y58030D01*
X353946Y57030D01*
Y54031D01*
X355945D02*
X357944D01*
X356945D01*
Y58030D01*
X355945D01*
X360944Y54031D02*
X362943D01*
X361943D01*
Y60030D01*
X360944D01*
X373939Y54031D02*
X371940Y56031D01*
Y58030D01*
X373939Y60030D01*
X376938Y59030D02*
X377938Y60030D01*
X379937D01*
X380937Y59030D01*
Y55031D01*
X379937Y54031D01*
X377938D01*
X376938Y55031D01*
Y59030D01*
X382936Y54031D02*
Y55031D01*
X383936D01*
Y54031D01*
X382936D01*
X387935Y59030D02*
X388934Y60030D01*
X390934D01*
X391933Y59030D01*
Y58030D01*
X390934Y57030D01*
X389934D01*
X390934D01*
X391933Y56031D01*
Y55031D01*
X390934Y54031D01*
X388934D01*
X387935Y55031D01*
X393933Y54031D02*
Y58030D01*
X394933D01*
X395932Y57030D01*
Y54031D01*
Y57030D01*
X396932Y58030D01*
X397932Y57030D01*
Y54031D01*
X399931D02*
Y58030D01*
X400931D01*
X401930Y57030D01*
Y54031D01*
Y57030D01*
X402930Y58030D01*
X403930Y57030D01*
Y54031D01*
X405929D02*
X407928Y56031D01*
Y58030D01*
X405929Y60030D01*
X453317Y54031D02*
Y60030D01*
X456317D01*
X457316Y59030D01*
Y57030D01*
X456317Y56031D01*
X453317D01*
X459316Y60030D02*
X463314D01*
X461315D01*
Y54031D01*
X465314Y60030D02*
Y54031D01*
Y57030D01*
X469312D01*
Y60030D01*
Y54031D01*
X503705D02*
Y60030D01*
X506704D01*
X507704Y59030D01*
Y57030D01*
X506704Y56031D01*
X503705D01*
X505704D02*
X507704Y54031D01*
X510703D02*
X512702D01*
X513702Y55031D01*
Y57030D01*
X512702Y58030D01*
X510703D01*
X509703Y57030D01*
Y55031D01*
X510703Y54031D01*
X515701Y58030D02*
Y55031D01*
X516701Y54031D01*
X519700D01*
Y58030D01*
X521699Y54031D02*
Y58030D01*
X524698D01*
X525698Y57030D01*
Y54031D01*
X531696Y60030D02*
Y54031D01*
X528697D01*
X527697Y55031D01*
Y57030D01*
X528697Y58030D01*
X531696D01*
X253375Y48030D02*
X251375Y47030D01*
X249376Y45031D01*
Y43031D01*
X250375Y42031D01*
X252375D01*
X253375Y43031D01*
Y44031D01*
X252375Y45031D01*
X249376D01*
X318957Y47030D02*
X319957Y48030D01*
X321956D01*
X322956Y47030D01*
Y46030D01*
X321956Y45031D01*
X320956D01*
X321956D01*
X322956Y44031D01*
Y43031D01*
X321956Y42031D01*
X319957D01*
X318957Y43031D01*
X324955Y42031D02*
X326955D01*
X325955D01*
Y48030D01*
X324955Y47030D01*
X329954Y42031D02*
Y43031D01*
X330953D01*
Y42031D01*
X329954D01*
X337951D02*
Y48030D01*
X334952Y45031D01*
X338951D01*
X340950Y43031D02*
X341950Y42031D01*
X343949D01*
X344949Y43031D01*
Y47030D01*
X343949Y48030D01*
X341950D01*
X340950Y47030D01*
Y46030D01*
X341950Y45031D01*
X344949D01*
X350947Y48030D02*
X348947Y47030D01*
X346948Y45031D01*
Y43031D01*
X347948Y42031D01*
X349947D01*
X350947Y43031D01*
Y44031D01*
X349947Y45031D01*
X346948D01*
X352946Y42031D02*
Y46030D01*
X353946D01*
X354945Y45031D01*
Y42031D01*
Y45031D01*
X355945Y46030D01*
X356945Y45031D01*
Y42031D01*
X358944D02*
X360944D01*
X359944D01*
Y46030D01*
X358944D01*
X363943Y42031D02*
X365942D01*
X364942D01*
Y48030D01*
X363943D01*
X376938Y42031D02*
X374939Y44031D01*
Y46030D01*
X376938Y48030D01*
X379937Y47030D02*
X380937Y48030D01*
X382936D01*
X383936Y47030D01*
Y43031D01*
X382936Y42031D01*
X380937D01*
X379937Y43031D01*
Y47030D01*
X385935Y42031D02*
Y43031D01*
X386935D01*
Y42031D01*
X385935D01*
X390934Y47030D02*
X391933Y48030D01*
X393933D01*
X394933Y47030D01*
Y46030D01*
X393933Y45031D01*
X394933Y44031D01*
Y43031D01*
X393933Y42031D01*
X391933D01*
X390934Y43031D01*
Y44031D01*
X391933Y45031D01*
X390934Y46030D01*
Y47030D01*
X391933Y45031D02*
X393933D01*
X396932Y42031D02*
Y46030D01*
X397932D01*
X398931Y45031D01*
Y42031D01*
Y45031D01*
X399931Y46030D01*
X400931Y45031D01*
Y42031D01*
X402930D02*
Y46030D01*
X403930D01*
X404929Y45031D01*
Y42031D01*
Y45031D01*
X405929Y46030D01*
X406929Y45031D01*
Y42031D01*
X408928D02*
X410927Y44031D01*
Y46030D01*
X408928Y48030D01*
X453317Y42031D02*
Y48030D01*
X456317D01*
X457316Y47030D01*
Y45031D01*
X456317Y44031D01*
X453317D01*
X459316Y48030D02*
X463314D01*
X461315D01*
Y42031D01*
X465314Y48030D02*
Y42031D01*
Y45031D01*
X469312D01*
Y48030D01*
Y42031D01*
X503705D02*
Y48030D01*
X506704D01*
X507704Y47030D01*
Y45031D01*
X506704Y44031D01*
X503705D01*
X505704D02*
X507704Y42031D01*
X510703D02*
X512702D01*
X513702Y43031D01*
Y45031D01*
X512702Y46030D01*
X510703D01*
X509703Y45031D01*
Y43031D01*
X510703Y42031D01*
X515701Y46030D02*
Y43031D01*
X516701Y42031D01*
X519700D01*
Y46030D01*
X521699Y42031D02*
Y46030D01*
X524698D01*
X525698Y45031D01*
Y42031D01*
X531696Y48030D02*
Y42031D01*
X528697D01*
X527697Y43031D01*
Y45031D01*
X528697Y46030D01*
X531696D01*
X252375Y30031D02*
Y36030D01*
X249376Y33031D01*
X253375D01*
X318957Y35030D02*
X319957Y36030D01*
X321956D01*
X322956Y35030D01*
Y34030D01*
X321956Y33031D01*
X320956D01*
X321956D01*
X322956Y32031D01*
Y31031D01*
X321956Y30031D01*
X319957D01*
X318957Y31031D01*
X324955D02*
X325955Y30031D01*
X327954D01*
X328954Y31031D01*
Y35030D01*
X327954Y36030D01*
X325955D01*
X324955Y35030D01*
Y34030D01*
X325955Y33031D01*
X328954D01*
X330953Y30031D02*
Y31031D01*
X331953D01*
Y30031D01*
X330953D01*
X335952Y35030D02*
X336951Y36030D01*
X338951D01*
X339950Y35030D01*
Y34030D01*
X338951Y33031D01*
X337951D01*
X338951D01*
X339950Y32031D01*
Y31031D01*
X338951Y30031D01*
X336951D01*
X335952Y31031D01*
X341950Y36030D02*
X345948D01*
Y35030D01*
X341950Y31031D01*
Y30031D01*
X347948D02*
Y34030D01*
X348947D01*
X349947Y33031D01*
Y30031D01*
Y33031D01*
X350947Y34030D01*
X351946Y33031D01*
Y30031D01*
X353946D02*
X355945D01*
X354945D01*
Y34030D01*
X353946D01*
X358944Y30031D02*
X360944D01*
X359944D01*
Y36030D01*
X358944D01*
X371940Y30031D02*
X369941Y32031D01*
Y34030D01*
X371940Y36030D01*
X374939Y30031D02*
X376938D01*
X375939D01*
Y36030D01*
X374939Y35030D01*
X379937Y30031D02*
Y34030D01*
X380937D01*
X381937Y33031D01*
Y30031D01*
Y33031D01*
X382936Y34030D01*
X383936Y33031D01*
Y30031D01*
X385935D02*
Y34030D01*
X386935D01*
X387935Y33031D01*
Y30031D01*
Y33031D01*
X388934Y34030D01*
X389934Y33031D01*
Y30031D01*
X391933D02*
X393933Y32031D01*
Y34030D01*
X391933Y36030D01*
X453317Y30031D02*
Y36030D01*
X456317D01*
X457316Y35030D01*
Y33031D01*
X456317Y32031D01*
X453317D01*
X459316Y36030D02*
X463314D01*
X461315D01*
Y30031D01*
X465314Y36030D02*
Y30031D01*
Y33031D01*
X469312D01*
Y36030D01*
Y30031D01*
X503705D02*
Y36030D01*
X506704D01*
X507704Y35030D01*
Y33031D01*
X506704Y32031D01*
X503705D01*
X505704D02*
X507704Y30031D01*
X510703D02*
X512702D01*
X513702Y31031D01*
Y33031D01*
X512702Y34030D01*
X510703D01*
X509703Y33031D01*
Y31031D01*
X510703Y30031D01*
X515701Y34030D02*
Y31031D01*
X516701Y30031D01*
X519700D01*
Y34030D01*
X521699Y30031D02*
Y34030D01*
X524698D01*
X525698Y33031D01*
Y30031D01*
X531696Y36030D02*
Y30031D01*
X528697D01*
X527697Y31031D01*
Y33031D01*
X528697Y34030D01*
X531696D01*
X249376Y23030D02*
X250375Y24030D01*
X252375D01*
X253375Y23030D01*
Y22030D01*
X252375Y21031D01*
X251375D01*
X252375D01*
X253375Y20031D01*
Y19031D01*
X252375Y18032D01*
X250375D01*
X249376Y19031D01*
X255374Y18032D02*
X257373D01*
X256374D01*
Y24030D01*
X255374Y23030D01*
X268173Y24030D02*
X272172D01*
X270173D01*
Y18032D01*
X275171D02*
X277170D01*
X278170Y19031D01*
Y21031D01*
X277170Y22030D01*
X275171D01*
X274171Y21031D01*
Y19031D01*
X275171Y18032D01*
X281169Y23030D02*
Y22030D01*
X280169D01*
X282169D01*
X281169D01*
Y19031D01*
X282169Y18032D01*
X286167Y22030D02*
X288167D01*
X289166Y21031D01*
Y18032D01*
X286167D01*
X285168Y19031D01*
X286167Y20031D01*
X289166D01*
X291166Y18032D02*
X293165D01*
X292165D01*
Y24030D01*
X291166D01*
G54D55*
X203787Y74430D02*
X202587Y75629D01*
X200188D01*
X198988Y74430D01*
Y73230D01*
X200188Y72030D01*
X202587D01*
X203787Y70831D01*
Y69631D01*
X202587Y68432D01*
X200188D01*
X198988Y69631D01*
X206186Y73230D02*
Y69631D01*
X207385Y68432D01*
X210984D01*
Y67232D01*
X209785Y66032D01*
X208585D01*
X210984Y68432D02*
Y73230D01*
X213384Y68432D02*
Y73230D01*
X214583D01*
X215783Y72030D01*
Y68432D01*
Y72030D01*
X216982Y73230D01*
X218182Y72030D01*
Y68432D01*
X220581Y75629D02*
Y68432D01*
X224180D01*
X225380Y69631D01*
Y70831D01*
Y72030D01*
X224180Y73230D01*
X220581D01*
X228978Y68432D02*
X231378D01*
X232577Y69631D01*
Y72030D01*
X231378Y73230D01*
X228978D01*
X227779Y72030D01*
Y69631D01*
X228978Y68432D01*
X234977D02*
X237376D01*
X236176D01*
Y75629D01*
X234977D01*
X249376D02*
Y68432D01*
Y72030D01*
X254174D01*
Y75629D01*
Y68432D01*
X256573D02*
X258973D01*
X257773D01*
Y73230D01*
X256573D01*
X263771Y74430D02*
Y73230D01*
X262572D01*
X264971D01*
X263771D01*
Y69631D01*
X264971Y68432D01*
X280566Y74430D02*
X279366Y75629D01*
X276967D01*
X275767Y74430D01*
Y69631D01*
X276967Y68432D01*
X279366D01*
X280566Y69631D01*
X284165Y68432D02*
X286564D01*
X287763Y69631D01*
Y72030D01*
X286564Y73230D01*
X284165D01*
X282965Y72030D01*
Y69631D01*
X284165Y68432D01*
X290163Y73230D02*
Y69631D01*
X291362Y68432D01*
X294961D01*
Y73230D01*
X297360Y68432D02*
Y73230D01*
X300959D01*
X302159Y72030D01*
Y68432D01*
X305757Y74430D02*
Y73230D01*
X304558D01*
X306957D01*
X305757D01*
Y69631D01*
X306957Y68432D01*
X323756Y75629D02*
X318957D01*
Y72030D01*
X321356D01*
X318957D01*
Y68432D01*
X326155D02*
X328554D01*
X327354D01*
Y73230D01*
X326155D01*
X332153Y68432D02*
Y73230D01*
X335752D01*
X336951Y72030D01*
Y68432D01*
X339351D02*
X341750D01*
X340550D01*
Y73230D01*
X339351D01*
X345349Y68432D02*
X348947D01*
X350147Y69631D01*
X348947Y70831D01*
X346548D01*
X345349Y72030D01*
X346548Y73230D01*
X350147D01*
X352546Y75629D02*
Y68432D01*
Y72030D01*
X353746Y73230D01*
X356145D01*
X357345Y72030D01*
Y68432D01*
X363343D02*
X360944D01*
X359744Y69631D01*
Y72030D01*
X360944Y73230D01*
X363343D01*
X364542Y72030D01*
Y70831D01*
X359744D01*
X371740Y75629D02*
Y68432D01*
X368141D01*
X366942Y69631D01*
Y72030D01*
X368141Y73230D01*
X371740D01*
X381337Y75629D02*
Y68432D01*
Y72030D01*
X386135D01*
Y75629D01*
Y68432D01*
X389734D02*
X392133D01*
X393333Y69631D01*
Y72030D01*
X392133Y73230D01*
X389734D01*
X388535Y72030D01*
Y69631D01*
X389734Y68432D01*
X395732D02*
X398131D01*
X396932D01*
Y75629D01*
X395732D01*
X405329Y68432D02*
X402930D01*
X401730Y69631D01*
Y72030D01*
X402930Y73230D01*
X405329D01*
X406529Y72030D01*
Y70831D01*
X401730D01*
X420924Y74430D02*
X419725Y75629D01*
X417325D01*
X416126Y74430D01*
Y73230D01*
X417325Y72030D01*
X419725D01*
X420924Y70831D01*
Y69631D01*
X419725Y68432D01*
X417325D01*
X416126Y69631D01*
X423323Y68432D02*
X425723D01*
X424523D01*
Y73230D01*
X423323D01*
X429321D02*
X434120D01*
X429321Y68432D01*
X434120D01*
X440118D02*
X437719D01*
X436519Y69631D01*
Y72030D01*
X437719Y73230D01*
X440118D01*
X441318Y72030D01*
Y70831D01*
X436519D01*
X453317Y68432D02*
Y75629D01*
X456916D01*
X458116Y74430D01*
Y72030D01*
X456916Y70831D01*
X453317D01*
X460515Y68432D02*
X462914D01*
X461715D01*
Y75629D01*
X460515D01*
X467713Y73230D02*
X470112D01*
X471312Y72030D01*
Y68432D01*
X467713D01*
X466513Y69631D01*
X467713Y70831D01*
X471312D01*
X474910Y74430D02*
Y73230D01*
X473711D01*
X476110D01*
X474910D01*
Y69631D01*
X476110Y68432D01*
X483308D02*
X480909D01*
X479709Y69631D01*
Y72030D01*
X480909Y73230D01*
X483308D01*
X484507Y72030D01*
Y70831D01*
X479709D01*
X491705Y75629D02*
Y68432D01*
X488106D01*
X486907Y69631D01*
Y72030D01*
X488106Y73230D01*
X491705D01*
X503705Y75629D02*
Y68432D01*
Y72030D01*
X508503D01*
Y75629D01*
Y68432D01*
X512102D02*
X514502D01*
X515701Y69631D01*
Y72030D01*
X514502Y73230D01*
X512102D01*
X510903Y72030D01*
Y69631D01*
X512102Y68432D01*
X518100D02*
X520500D01*
X519300D01*
Y75629D01*
X518100D01*
X527697Y68432D02*
X525298D01*
X524098Y69631D01*
Y72030D01*
X525298Y73230D01*
X527697D01*
X528897Y72030D01*
Y70831D01*
X524098D01*
X538494Y75629D02*
X543292D01*
X540893D01*
Y68432D01*
X545691Y73230D02*
Y69631D01*
X546891Y68432D01*
X550490D01*
Y67232D01*
X549290Y66032D01*
X548091D01*
X550490Y68432D02*
Y73230D01*
X552889Y66032D02*
Y73230D01*
X556488D01*
X557688Y72030D01*
Y69631D01*
X556488Y68432D01*
X552889D01*
X563686D02*
X561286D01*
X560087Y69631D01*
Y72030D01*
X561286Y73230D01*
X563686D01*
X564885Y72030D01*
Y70831D01*
X560087D01*
X190188Y79232D02*
X576885D01*
X190188Y63032D02*
X576885D01*
X190188Y79232D02*
Y15032D01*
X576885Y79232D02*
Y15032D01*
X244976Y79232D02*
Y15032D01*
X314557Y79232D02*
Y15032D01*
X448917Y79232D02*
Y15032D01*
X499305Y79232D02*
Y15032D01*
X190188Y27031D02*
X576885D01*
X190188Y15032D02*
X576885D01*
G54D56*
X203788Y33031D02*
X203581Y34008D01*
X202994Y34815D01*
X202130Y35314D01*
X201137Y35418D01*
X200188Y35110D01*
X199447Y34442D01*
X199041Y33531D01*
Y32533D01*
X199447Y31621D01*
X200188Y30953D01*
X201137Y30645D01*
X202130Y30749D01*
X202994Y31248D01*
X203581Y32055D01*
X203788Y33031D01*
M02*
