G04 Layer_Color=2752767*
%FSLAX25Y25*%
%MOIN*%
G70*
G01*
G75*
%ADD10C,0.00200*%
%ADD11C,0.00267*%
%ADD12C,0.01000*%
G54D10*
X538365Y192657D02*
Y194257D01*
X539965D01*
Y192657D01*
X538365D01*
X564047Y161948D02*
X563247Y163548D01*
X564847D01*
X564047Y161948D01*
X554047D02*
X553247Y163548D01*
X554847D01*
X554047Y161948D01*
X544047D02*
X543247Y163548D01*
X544847D01*
X544047Y161948D01*
X534047D02*
X533247Y163548D01*
X534847D01*
X534047Y161948D01*
X587591Y259192D02*
X587991Y259592D01*
X588390D01*
X587991Y259992D01*
X588390Y260392D01*
X587991D01*
X587591Y260792D01*
X587190Y260392D01*
X586791D01*
X587190Y259992D01*
X586791Y259592D01*
X587190D01*
X587591Y259192D01*
X541528Y227302D02*
X541928Y227702D01*
X542328D01*
X541928Y228102D01*
X542328Y228502D01*
X541928D01*
X541528Y228902D01*
X541128Y228502D01*
X540728D01*
X541128Y228102D01*
X540728Y227702D01*
X541128D01*
X541528Y227302D01*
X573024Y265491D02*
X573424Y265891D01*
X573824D01*
X573424Y266291D01*
X573824Y266691D01*
X573424D01*
X573024Y267091D01*
X572624Y266691D01*
X572224D01*
X572624Y266291D01*
X572224Y265891D01*
X572624D01*
X573024Y265491D01*
X534835Y228090D02*
X535235Y228490D01*
X535635D01*
X535235Y228890D01*
X535635Y229290D01*
X535235D01*
X534835Y229690D01*
X534435Y229290D01*
X534035D01*
X534435Y228890D01*
X534035Y228490D01*
X534435D01*
X534835Y228090D01*
X534441Y237932D02*
X534841Y238332D01*
X535241D01*
X534841Y238732D01*
X535241Y239132D01*
X534841D01*
X534441Y239532D01*
X534041Y239132D01*
X533641D01*
X534041Y238732D01*
X533641Y238332D01*
X534041D01*
X534441Y237932D01*
X535228Y270609D02*
X535628Y271009D01*
X536028D01*
X535628Y271410D01*
X536028Y271810D01*
X535628D01*
X535228Y272210D01*
X534828Y271810D01*
X534428D01*
X534828Y271410D01*
X534428Y271009D01*
X534828D01*
X535228Y270609D01*
X539165Y242263D02*
X539565Y242663D01*
X539965D01*
X539565Y243063D01*
X539965Y243463D01*
X539565D01*
X539165Y243863D01*
X538765Y243463D01*
X538365D01*
X538765Y243063D01*
X538365Y242663D01*
X538765D01*
X539165Y242263D01*
X472236Y129665D02*
X472636Y130065D01*
X473036D01*
X472636Y130465D01*
X473036Y130865D01*
X472636D01*
X472236Y131265D01*
X471836Y130865D01*
X471436D01*
X471836Y130465D01*
X471436Y130065D01*
X471836D01*
X472236Y129665D01*
X467118Y263523D02*
X467518Y263923D01*
X467918D01*
X467518Y264323D01*
X467918Y264723D01*
X467518D01*
X467118Y265123D01*
X466718Y264723D01*
X466318D01*
X466718Y264323D01*
X466318Y263923D01*
X466718D01*
X467118Y263523D01*
X524598Y222578D02*
X524998Y222978D01*
X525398D01*
X524998Y223378D01*
X525398Y223778D01*
X524998D01*
X524598Y224178D01*
X524198Y223778D01*
X523798D01*
X524198Y223378D01*
X523798Y222978D01*
X524198D01*
X524598Y222578D01*
X521055Y209192D02*
X521455Y209592D01*
X521855D01*
X521455Y209992D01*
X521855Y210392D01*
X521455D01*
X521055Y210792D01*
X520655Y210392D01*
X520255D01*
X520655Y209992D01*
X520255Y209592D01*
X520655D01*
X521055Y209192D01*
X573417Y239113D02*
X573817Y239513D01*
X574217D01*
X573817Y239913D01*
X574217Y240313D01*
X573817D01*
X573417Y240713D01*
X573017Y240313D01*
X572617D01*
X573017Y239913D01*
X572617Y239513D01*
X573017D01*
X573417Y239113D01*
X557276Y229271D02*
X557676Y229671D01*
X558076D01*
X557676Y230071D01*
X558076Y230471D01*
X557676D01*
X557276Y230871D01*
X556876Y230471D01*
X556476D01*
X556876Y230071D01*
X556476Y229671D01*
X556876D01*
X557276Y229271D01*
X588772Y228877D02*
X589172Y229277D01*
X589572D01*
X589172Y229677D01*
X589572Y230077D01*
X589172D01*
X588772Y230477D01*
X588372Y230077D01*
X587972D01*
X588372Y229677D01*
X587972Y229277D01*
X588372D01*
X588772Y228877D01*
X523811Y164704D02*
X524211Y165104D01*
X524611D01*
X524211Y165504D01*
X524611Y165904D01*
X524211D01*
X523811Y166304D01*
X523411Y165904D01*
X523011D01*
X523411Y165504D01*
X523011Y165104D01*
X523411D01*
X523811Y164704D01*
X493496Y159192D02*
X493896Y159592D01*
X494296D01*
X493896Y159992D01*
X494296Y160392D01*
X493896D01*
X493496Y160792D01*
X493096Y160392D01*
X492696D01*
X493096Y159992D01*
X492696Y159592D01*
X493096D01*
X493496Y159192D01*
X556882Y265098D02*
X557282Y265498D01*
X557682D01*
X557282Y265898D01*
X557682Y266298D01*
X557282D01*
X556882Y266698D01*
X556482Y266298D01*
X556082D01*
X556482Y265898D01*
X556082Y265498D01*
X556482D01*
X556882Y265098D01*
X552017Y261853D02*
X552417Y262252D01*
X552817D01*
X552417Y262652D01*
X552817Y263053D01*
X552417D01*
X552017Y263453D01*
X551617Y263053D01*
X551217D01*
X551617Y262652D01*
X551217Y262252D01*
X551617D01*
X552017Y261853D01*
X580504Y230452D02*
X580904Y230852D01*
X581304D01*
X580904Y231252D01*
X581304Y231652D01*
X580904D01*
X580504Y232052D01*
X580104Y231652D01*
X579704D01*
X580104Y231252D01*
X579704Y230852D01*
X580104D01*
X580504Y230452D01*
X544283Y250137D02*
X544684Y250537D01*
X545084D01*
X544684Y250937D01*
X545084Y251337D01*
X544684D01*
X544283Y251737D01*
X543884Y251337D01*
X543483D01*
X543884Y250937D01*
X543483Y250537D01*
X543884D01*
X544283Y250137D01*
X512000Y238326D02*
X512400Y238726D01*
X512800D01*
X512400Y239126D01*
X512800Y239526D01*
X512400D01*
X512000Y239926D01*
X511600Y239526D01*
X511200D01*
X511600Y239126D01*
X511200Y238726D01*
X511600D01*
X512000Y238326D01*
X538365Y442657D02*
Y444257D01*
X539965D01*
Y442657D01*
X538365D01*
X564047Y411948D02*
X563247Y413548D01*
X564847D01*
X564047Y411948D01*
X554047D02*
X553247Y413548D01*
X554847D01*
X554047Y411948D01*
X544047D02*
X543247Y413548D01*
X544847D01*
X544047Y411948D01*
X534047D02*
X533247Y413548D01*
X534847D01*
X534047Y411948D01*
X587591Y509192D02*
X587991Y509592D01*
X588390D01*
X587991Y509992D01*
X588390Y510392D01*
X587991D01*
X587591Y510792D01*
X587190Y510392D01*
X586791D01*
X587190Y509992D01*
X586791Y509592D01*
X587190D01*
X587591Y509192D01*
X541528Y477302D02*
X541928Y477702D01*
X542328D01*
X541928Y478102D01*
X542328Y478502D01*
X541928D01*
X541528Y478902D01*
X541128Y478502D01*
X540728D01*
X541128Y478102D01*
X540728Y477702D01*
X541128D01*
X541528Y477302D01*
X573024Y515491D02*
X573424Y515891D01*
X573824D01*
X573424Y516291D01*
X573824Y516691D01*
X573424D01*
X573024Y517091D01*
X572624Y516691D01*
X572224D01*
X572624Y516291D01*
X572224Y515891D01*
X572624D01*
X573024Y515491D01*
X534835Y478090D02*
X535235Y478490D01*
X535635D01*
X535235Y478890D01*
X535635Y479290D01*
X535235D01*
X534835Y479690D01*
X534435Y479290D01*
X534035D01*
X534435Y478890D01*
X534035Y478490D01*
X534435D01*
X534835Y478090D01*
X534441Y487932D02*
X534841Y488332D01*
X535241D01*
X534841Y488732D01*
X535241Y489132D01*
X534841D01*
X534441Y489532D01*
X534041Y489132D01*
X533641D01*
X534041Y488732D01*
X533641Y488332D01*
X534041D01*
X534441Y487932D01*
X535228Y520610D02*
X535628Y521009D01*
X536028D01*
X535628Y521410D01*
X536028Y521809D01*
X535628D01*
X535228Y522210D01*
X534828Y521809D01*
X534428D01*
X534828Y521410D01*
X534428Y521009D01*
X534828D01*
X535228Y520610D01*
X539165Y492263D02*
X539565Y492663D01*
X539965D01*
X539565Y493063D01*
X539965Y493463D01*
X539565D01*
X539165Y493863D01*
X538765Y493463D01*
X538365D01*
X538765Y493063D01*
X538365Y492663D01*
X538765D01*
X539165Y492263D01*
X472236Y379665D02*
X472636Y380065D01*
X473036D01*
X472636Y380465D01*
X473036Y380865D01*
X472636D01*
X472236Y381265D01*
X471836Y380865D01*
X471436D01*
X471836Y380465D01*
X471436Y380065D01*
X471836D01*
X472236Y379665D01*
X467118Y513523D02*
X467518Y513923D01*
X467918D01*
X467518Y514323D01*
X467918Y514723D01*
X467518D01*
X467118Y515123D01*
X466718Y514723D01*
X466318D01*
X466718Y514323D01*
X466318Y513923D01*
X466718D01*
X467118Y513523D01*
X524598Y472578D02*
X524998Y472978D01*
X525398D01*
X524998Y473378D01*
X525398Y473778D01*
X524998D01*
X524598Y474178D01*
X524198Y473778D01*
X523798D01*
X524198Y473378D01*
X523798Y472978D01*
X524198D01*
X524598Y472578D01*
X521055Y459192D02*
X521455Y459592D01*
X521855D01*
X521455Y459992D01*
X521855Y460392D01*
X521455D01*
X521055Y460792D01*
X520655Y460392D01*
X520255D01*
X520655Y459992D01*
X520255Y459592D01*
X520655D01*
X521055Y459192D01*
X573417Y489113D02*
X573817Y489513D01*
X574217D01*
X573817Y489913D01*
X574217Y490313D01*
X573817D01*
X573417Y490713D01*
X573017Y490313D01*
X572617D01*
X573017Y489913D01*
X572617Y489513D01*
X573017D01*
X573417Y489113D01*
X557276Y479271D02*
X557676Y479671D01*
X558076D01*
X557676Y480071D01*
X558076Y480471D01*
X557676D01*
X557276Y480871D01*
X556876Y480471D01*
X556476D01*
X556876Y480071D01*
X556476Y479671D01*
X556876D01*
X557276Y479271D01*
X588772Y478877D02*
X589172Y479277D01*
X589572D01*
X589172Y479677D01*
X589572Y480077D01*
X589172D01*
X588772Y480477D01*
X588372Y480077D01*
X587972D01*
X588372Y479677D01*
X587972Y479277D01*
X588372D01*
X588772Y478877D01*
X523811Y414704D02*
X524211Y415104D01*
X524611D01*
X524211Y415504D01*
X524611Y415904D01*
X524211D01*
X523811Y416304D01*
X523411Y415904D01*
X523011D01*
X523411Y415504D01*
X523011Y415104D01*
X523411D01*
X523811Y414704D01*
X493496Y409192D02*
X493896Y409592D01*
X494296D01*
X493896Y409992D01*
X494296Y410392D01*
X493896D01*
X493496Y410792D01*
X493096Y410392D01*
X492696D01*
X493096Y409992D01*
X492696Y409592D01*
X493096D01*
X493496Y409192D01*
X556882Y515098D02*
X557282Y515498D01*
X557682D01*
X557282Y515898D01*
X557682Y516298D01*
X557282D01*
X556882Y516698D01*
X556482Y516298D01*
X556082D01*
X556482Y515898D01*
X556082Y515498D01*
X556482D01*
X556882Y515098D01*
X552017Y511853D02*
X552417Y512253D01*
X552817D01*
X552417Y512652D01*
X552817Y513053D01*
X552417D01*
X552017Y513452D01*
X551617Y513053D01*
X551217D01*
X551617Y512652D01*
X551217Y512253D01*
X551617D01*
X552017Y511853D01*
X580504Y480452D02*
X580904Y480852D01*
X581304D01*
X580904Y481252D01*
X581304Y481652D01*
X580904D01*
X580504Y482052D01*
X580104Y481652D01*
X579704D01*
X580104Y481252D01*
X579704Y480852D01*
X580104D01*
X580504Y480452D01*
X544283Y500137D02*
X544684Y500537D01*
X545084D01*
X544684Y500937D01*
X545084Y501337D01*
X544684D01*
X544283Y501737D01*
X543884Y501337D01*
X543483D01*
X543884Y500937D01*
X543483Y500537D01*
X543884D01*
X544283Y500137D01*
X512000Y488326D02*
X512400Y488726D01*
X512800D01*
X512400Y489126D01*
X512800Y489526D01*
X512400D01*
X512000Y489926D01*
X511600Y489526D01*
X511200D01*
X511600Y489126D01*
X511200Y488726D01*
X511600D01*
X512000Y488326D01*
X140209Y303503D02*
X139409Y305103D01*
X141009D01*
X140209Y303503D01*
Y363503D02*
X139409Y365103D01*
X141009D01*
X140209Y363503D01*
X250445Y333503D02*
X249645Y335103D01*
X251245D01*
X250445Y333503D01*
Y363503D02*
X249645Y365103D01*
X251245D01*
X250445Y363503D01*
X140468Y413913D02*
X140868Y414713D01*
X140468Y415513D01*
X141268Y415113D01*
X142068Y415513D01*
X141668Y414713D01*
X142068Y413913D01*
X141268Y414313D01*
X140468Y413913D01*
X154247Y384385D02*
X154647Y385185D01*
X154247Y385985D01*
X155047Y385585D01*
X155847Y385985D01*
X155447Y385185D01*
X155847Y384385D01*
X155047Y384785D01*
X154247Y384385D01*
X223145Y413913D02*
X223545Y414713D01*
X223145Y415513D01*
X223945Y415113D01*
X224745Y415513D01*
X224345Y414713D01*
X224745Y413913D01*
X223945Y414313D01*
X223145Y413913D01*
Y384385D02*
X223545Y385185D01*
X223145Y385985D01*
X223945Y385585D01*
X224745Y385985D01*
X224345Y385185D01*
X224745Y384385D01*
X223945Y384785D01*
X223145Y384385D01*
Y399149D02*
X223545Y399949D01*
X223145Y400749D01*
X223945Y400349D01*
X224745Y400749D01*
X224345Y399949D01*
X224745Y399149D01*
X223945Y399549D01*
X223145Y399149D01*
X140468Y459188D02*
X140868Y459988D01*
X140468Y460788D01*
X141268Y460388D01*
X142068Y460788D01*
X141668Y459988D01*
X142068Y459188D01*
X141268Y459588D01*
X140468Y459188D01*
X154247Y429661D02*
X154647Y430461D01*
X154247Y431261D01*
X155047Y430861D01*
X155847Y431261D01*
X155447Y430461D01*
X155847Y429661D01*
X155047Y430061D01*
X154247Y429661D01*
X223145Y459188D02*
X223545Y459988D01*
X223145Y460788D01*
X223945Y460388D01*
X224745Y460788D01*
X224345Y459988D01*
X224745Y459188D01*
X223945Y459588D01*
X223145Y459188D01*
Y429661D02*
X223545Y430461D01*
X223145Y431261D01*
X223945Y430861D01*
X224745Y431261D01*
X224345Y430461D01*
X224745Y429661D01*
X223945Y430061D01*
X223145Y429661D01*
Y444424D02*
X223545Y445224D01*
X223145Y446024D01*
X223945Y445624D01*
X224745Y446024D01*
X224345Y445224D01*
X224745Y444424D01*
X223945Y444824D01*
X223145Y444424D01*
X236143Y420809D02*
Y420409D01*
X236943D01*
Y420809D01*
X237343D01*
Y421609D01*
X236943D01*
Y422009D01*
X236143D01*
Y421609D01*
X235743D01*
Y420809D01*
X236143D01*
X232994Y441281D02*
Y440881D01*
X233794D01*
Y441281D01*
X234194D01*
Y442081D01*
X233794D01*
Y442481D01*
X232994D01*
Y442081D01*
X232594D01*
Y441281D01*
X232994D01*
X254254Y446793D02*
Y446393D01*
X255054D01*
Y446793D01*
X255454D01*
Y447593D01*
X255054D01*
Y447993D01*
X254254D01*
Y447593D01*
X253854D01*
Y446793D01*
X254254D01*
Y455061D02*
Y454661D01*
X255054D01*
Y455061D01*
X255454D01*
Y455861D01*
X255054D01*
Y456261D01*
X254254D01*
Y455861D01*
X253854D01*
Y455061D01*
X254254D01*
X227875Y437344D02*
Y436944D01*
X228676D01*
Y437344D01*
X229076D01*
Y438144D01*
X228676D01*
Y438544D01*
X227875D01*
Y438144D01*
X227476D01*
Y437344D01*
X227875D01*
X210159Y353092D02*
Y352692D01*
X210959D01*
Y353092D01*
X211359D01*
Y353892D01*
X210959D01*
Y354292D01*
X210159D01*
Y353892D01*
X209759D01*
Y353092D01*
X210159D01*
X230632Y340100D02*
Y339700D01*
X231432D01*
Y340100D01*
X231832D01*
Y340900D01*
X231432D01*
Y341300D01*
X230632D01*
Y340900D01*
X230232D01*
Y340100D01*
X230632D01*
X208191Y344135D02*
Y343735D01*
X208991D01*
Y344135D01*
X209391D01*
Y344935D01*
X208991D01*
Y345335D01*
X208191D01*
Y344935D01*
X207791D01*
Y344135D01*
X208191D01*
X219318Y392167D02*
Y391767D01*
X220118D01*
Y392167D01*
X220518D01*
Y392967D01*
X220118D01*
Y393367D01*
X219318D01*
Y392967D01*
X218918D01*
Y392167D01*
X219318D01*
X208191Y337344D02*
Y336944D01*
X208991D01*
Y337344D01*
X209391D01*
Y338144D01*
X208991D01*
Y338544D01*
X208191D01*
Y338144D01*
X207791D01*
Y337344D01*
X208191D01*
X248742Y352305D02*
Y351905D01*
X249542D01*
Y352305D01*
X249942D01*
Y353105D01*
X249542D01*
Y353505D01*
X248742D01*
Y353105D01*
X248342D01*
Y352305D01*
X248742D01*
X242049Y384785D02*
Y384385D01*
X242849D01*
Y384785D01*
X243249D01*
Y385585D01*
X242849D01*
Y385985D01*
X242049D01*
Y385585D01*
X241649D01*
Y384785D01*
X242049D01*
X290209Y303503D02*
X289409Y305103D01*
X291009D01*
X290209Y303503D01*
Y363503D02*
X289409Y365103D01*
X291009D01*
X290209Y363503D01*
X400445Y333503D02*
X399645Y335103D01*
X401245D01*
X400445Y333503D01*
Y363503D02*
X399645Y365103D01*
X401245D01*
X400445Y363503D01*
X290468Y413913D02*
X290868Y414713D01*
X290468Y415513D01*
X291268Y415113D01*
X292068Y415513D01*
X291668Y414713D01*
X292068Y413913D01*
X291268Y414313D01*
X290468Y413913D01*
X304247Y384385D02*
X304647Y385185D01*
X304247Y385985D01*
X305047Y385585D01*
X305847Y385985D01*
X305447Y385185D01*
X305847Y384385D01*
X305047Y384785D01*
X304247Y384385D01*
X373145Y413913D02*
X373545Y414713D01*
X373145Y415513D01*
X373945Y415113D01*
X374745Y415513D01*
X374345Y414713D01*
X374745Y413913D01*
X373945Y414313D01*
X373145Y413913D01*
Y384385D02*
X373545Y385185D01*
X373145Y385985D01*
X373945Y385585D01*
X374745Y385985D01*
X374345Y385185D01*
X374745Y384385D01*
X373945Y384785D01*
X373145Y384385D01*
Y399149D02*
X373545Y399949D01*
X373145Y400749D01*
X373945Y400349D01*
X374745Y400749D01*
X374345Y399949D01*
X374745Y399149D01*
X373945Y399549D01*
X373145Y399149D01*
X290468Y459188D02*
X290868Y459988D01*
X290468Y460788D01*
X291268Y460388D01*
X292068Y460788D01*
X291668Y459988D01*
X292068Y459188D01*
X291268Y459588D01*
X290468Y459188D01*
X304247Y429661D02*
X304647Y430461D01*
X304247Y431261D01*
X305047Y430861D01*
X305847Y431261D01*
X305447Y430461D01*
X305847Y429661D01*
X305047Y430061D01*
X304247Y429661D01*
X373145Y459188D02*
X373545Y459988D01*
X373145Y460788D01*
X373945Y460388D01*
X374745Y460788D01*
X374345Y459988D01*
X374745Y459188D01*
X373945Y459588D01*
X373145Y459188D01*
Y429661D02*
X373545Y430461D01*
X373145Y431261D01*
X373945Y430861D01*
X374745Y431261D01*
X374345Y430461D01*
X374745Y429661D01*
X373945Y430061D01*
X373145Y429661D01*
Y444424D02*
X373545Y445224D01*
X373145Y446024D01*
X373945Y445624D01*
X374745Y446024D01*
X374345Y445224D01*
X374745Y444424D01*
X373945Y444824D01*
X373145Y444424D01*
X386143Y420809D02*
Y420409D01*
X386943D01*
Y420809D01*
X387343D01*
Y421609D01*
X386943D01*
Y422009D01*
X386143D01*
Y421609D01*
X385743D01*
Y420809D01*
X386143D01*
X382994Y441281D02*
Y440881D01*
X383794D01*
Y441281D01*
X384194D01*
Y442081D01*
X383794D01*
Y442481D01*
X382994D01*
Y442081D01*
X382594D01*
Y441281D01*
X382994D01*
X404254Y446793D02*
Y446393D01*
X405054D01*
Y446793D01*
X405454D01*
Y447593D01*
X405054D01*
Y447993D01*
X404254D01*
Y447593D01*
X403854D01*
Y446793D01*
X404254D01*
Y455061D02*
Y454661D01*
X405054D01*
Y455061D01*
X405454D01*
Y455861D01*
X405054D01*
Y456261D01*
X404254D01*
Y455861D01*
X403854D01*
Y455061D01*
X404254D01*
X377875Y437344D02*
Y436944D01*
X378676D01*
Y437344D01*
X379076D01*
Y438144D01*
X378676D01*
Y438544D01*
X377875D01*
Y438144D01*
X377476D01*
Y437344D01*
X377875D01*
X360159Y353092D02*
Y352692D01*
X360959D01*
Y353092D01*
X361359D01*
Y353892D01*
X360959D01*
Y354292D01*
X360159D01*
Y353892D01*
X359759D01*
Y353092D01*
X360159D01*
X380632Y340100D02*
Y339700D01*
X381432D01*
Y340100D01*
X381832D01*
Y340900D01*
X381432D01*
Y341300D01*
X380632D01*
Y340900D01*
X380232D01*
Y340100D01*
X380632D01*
X358191Y344135D02*
Y343735D01*
X358991D01*
Y344135D01*
X359391D01*
Y344935D01*
X358991D01*
Y345335D01*
X358191D01*
Y344935D01*
X357791D01*
Y344135D01*
X358191D01*
X369318Y392167D02*
Y391767D01*
X370118D01*
Y392167D01*
X370518D01*
Y392967D01*
X370118D01*
Y393367D01*
X369318D01*
Y392967D01*
X368918D01*
Y392167D01*
X369318D01*
X358191Y337344D02*
Y336944D01*
X358991D01*
Y337344D01*
X359391D01*
Y338144D01*
X358991D01*
Y338544D01*
X358191D01*
Y338144D01*
X357791D01*
Y337344D01*
X358191D01*
X398742Y352305D02*
Y351905D01*
X399542D01*
Y352305D01*
X399942D01*
Y353105D01*
X399542D01*
Y353505D01*
X398742D01*
Y353105D01*
X398342D01*
Y352305D01*
X398742D01*
X392049Y384785D02*
Y384385D01*
X392849D01*
Y384785D01*
X393249D01*
Y385585D01*
X392849D01*
Y385985D01*
X392049D01*
Y385585D01*
X391649D01*
Y384785D01*
X392049D01*
G54D11*
X465556Y219441D02*
X465003Y220202D01*
X464109Y219911D01*
Y218971D01*
X465003Y218680D01*
X465556Y219441D01*
X473430D02*
X472877Y220202D01*
X471983Y219911D01*
Y218971D01*
X472877Y218680D01*
X473430Y219441D01*
X497052D02*
X496499Y220202D01*
X495605Y219911D01*
Y218971D01*
X496499Y218680D01*
X497052Y219441D01*
X457682D02*
X457129Y220202D01*
X456235Y219911D01*
Y218971D01*
X457129Y218680D01*
X457682Y219441D01*
X489178D02*
X488625Y220202D01*
X487731Y219911D01*
Y218971D01*
X488625Y218680D01*
X489178Y219441D01*
X481304D02*
X480751Y220202D01*
X479857Y219911D01*
Y218971D01*
X480751Y218680D01*
X481304Y219441D01*
X465556Y469441D02*
X465003Y470202D01*
X464109Y469911D01*
Y468971D01*
X465003Y468680D01*
X465556Y469441D01*
X473430D02*
X472877Y470202D01*
X471983Y469911D01*
Y468971D01*
X472877Y468680D01*
X473430Y469441D01*
X497052D02*
X496499Y470202D01*
X495605Y469911D01*
Y468971D01*
X496499Y468680D01*
X497052Y469441D01*
X457682D02*
X457129Y470202D01*
X456235Y469911D01*
Y468971D01*
X457129Y468680D01*
X457682Y469441D01*
X489178D02*
X488625Y470202D01*
X487731Y469911D01*
Y468971D01*
X488625Y468680D01*
X489178Y469441D01*
X481304D02*
X480751Y470202D01*
X479857Y469911D01*
Y468971D01*
X480751Y468680D01*
X481304Y469441D01*
G54D12*
X641697Y111030D02*
Y105032D01*
X644696D01*
X645696Y106031D01*
Y110030D01*
X644696Y111030D01*
X641697D01*
X647695Y109030D02*
Y105032D01*
Y107031D01*
X648695Y108030D01*
X649694Y109030D01*
X650694D01*
X653693Y105032D02*
X655692D01*
X654693D01*
Y109030D01*
X653693D01*
X658691Y105032D02*
X660691D01*
X659691D01*
Y111030D01*
X658691D01*
X663690Y105032D02*
X665689D01*
X664689D01*
Y111030D01*
X663690D01*
X674686D02*
Y105032D01*
X677685D01*
X678685Y106031D01*
Y110030D01*
X677685Y111030D01*
X674686D01*
X680684Y109030D02*
Y105032D01*
Y107031D01*
X681684Y108030D01*
X682684Y109030D01*
X683683D01*
X687682D02*
X689681D01*
X690681Y108030D01*
Y105032D01*
X687682D01*
X686682Y106031D01*
X687682Y107031D01*
X690681D01*
X692680Y109030D02*
Y106031D01*
X693680Y105032D01*
X694680Y106031D01*
X695679Y105032D01*
X696679Y106031D01*
Y109030D01*
X698678Y105032D02*
X700678D01*
X699678D01*
Y109030D01*
X698678D01*
X703677Y105032D02*
Y109030D01*
X706676D01*
X707676Y108030D01*
Y105032D01*
X711674Y103032D02*
X712674D01*
X713674Y104032D01*
Y109030D01*
X710674D01*
X709675Y108030D01*
Y106031D01*
X710674Y105032D01*
X713674D01*
X715673D02*
Y106031D01*
X716673D01*
Y105032D01*
X715673D01*
X641697Y361030D02*
Y355031D01*
X644696D01*
X645696Y356031D01*
Y360030D01*
X644696Y361030D01*
X641697D01*
X647695Y359030D02*
Y355031D01*
Y357031D01*
X648695Y358031D01*
X649694Y359030D01*
X650694D01*
X653693Y355031D02*
X655692D01*
X654693D01*
Y359030D01*
X653693D01*
X658691Y355031D02*
X660691D01*
X659691D01*
Y361030D01*
X658691D01*
X663690Y355031D02*
X665689D01*
X664689D01*
Y361030D01*
X663690D01*
X674686D02*
Y355031D01*
X677685D01*
X678685Y356031D01*
Y360030D01*
X677685Y361030D01*
X674686D01*
X680684Y359030D02*
Y355031D01*
Y357031D01*
X681684Y358031D01*
X682684Y359030D01*
X683683D01*
X687682D02*
X689681D01*
X690681Y358031D01*
Y355031D01*
X687682D01*
X686682Y356031D01*
X687682Y357031D01*
X690681D01*
X692680Y359030D02*
Y356031D01*
X693680Y355031D01*
X694680Y356031D01*
X695679Y355031D01*
X696679Y356031D01*
Y359030D01*
X698678Y355031D02*
X700678D01*
X699678D01*
Y359030D01*
X698678D01*
X703677Y355031D02*
Y359030D01*
X706676D01*
X707676Y358031D01*
Y355031D01*
X711674Y353032D02*
X712674D01*
X713674Y354032D01*
Y359030D01*
X710674D01*
X709675Y358031D01*
Y356031D01*
X710674Y355031D01*
X713674D01*
X715673D02*
Y356031D01*
X716673D01*
Y355031D01*
X715673D01*
X287689Y305238D02*
Y299240D01*
X290688D01*
X291688Y300240D01*
Y304239D01*
X290688Y305238D01*
X287689D01*
X293687Y303239D02*
Y299240D01*
Y301239D01*
X294687Y302239D01*
X295686Y303239D01*
X296686D01*
X299685Y299240D02*
X301684D01*
X300685D01*
Y303239D01*
X299685D01*
X304683Y299240D02*
X306683D01*
X305683D01*
Y305238D01*
X304683D01*
X309682Y299240D02*
X311681D01*
X310682D01*
Y305238D01*
X309682D01*
X320678D02*
Y299240D01*
X323677D01*
X324677Y300240D01*
Y304239D01*
X323677Y305238D01*
X320678D01*
X326676Y303239D02*
Y299240D01*
Y301239D01*
X327676Y302239D01*
X328676Y303239D01*
X329675D01*
X333674D02*
X335673D01*
X336673Y302239D01*
Y299240D01*
X333674D01*
X332675Y300240D01*
X333674Y301239D01*
X336673D01*
X338672Y303239D02*
Y300240D01*
X339672Y299240D01*
X340672Y300240D01*
X341672Y299240D01*
X342671Y300240D01*
Y303239D01*
X344671Y299240D02*
X346670D01*
X345670D01*
Y303239D01*
X344671D01*
X349669Y299240D02*
Y303239D01*
X352668D01*
X353668Y302239D01*
Y299240D01*
X357666Y297241D02*
X358666D01*
X359666Y298240D01*
Y303239D01*
X356667D01*
X355667Y302239D01*
Y300240D01*
X356667Y299240D01*
X359666D01*
X361665D02*
Y300240D01*
X362665D01*
Y299240D01*
X361665D01*
X437689Y305238D02*
Y299240D01*
X440688D01*
X441688Y300240D01*
Y304239D01*
X440688Y305238D01*
X437689D01*
X443687Y303239D02*
Y299240D01*
Y301239D01*
X444687Y302239D01*
X445686Y303239D01*
X446686D01*
X449685Y299240D02*
X451685D01*
X450685D01*
Y303239D01*
X449685D01*
X454683Y299240D02*
X456683D01*
X455683D01*
Y305238D01*
X454683D01*
X459682Y299240D02*
X461681D01*
X460682D01*
Y305238D01*
X459682D01*
X470678D02*
Y299240D01*
X473677D01*
X474677Y300240D01*
Y304239D01*
X473677Y305238D01*
X470678D01*
X476676Y303239D02*
Y299240D01*
Y301239D01*
X477676Y302239D01*
X478676Y303239D01*
X479675D01*
X483674D02*
X485674D01*
X486673Y302239D01*
Y299240D01*
X483674D01*
X482675Y300240D01*
X483674Y301239D01*
X486673D01*
X488672Y303239D02*
Y300240D01*
X489672Y299240D01*
X490672Y300240D01*
X491672Y299240D01*
X492671Y300240D01*
Y303239D01*
X494671Y299240D02*
X496670D01*
X495670D01*
Y303239D01*
X494671D01*
X499669Y299240D02*
Y303239D01*
X502668D01*
X503668Y302239D01*
Y299240D01*
X507666Y297241D02*
X508666D01*
X509666Y298240D01*
Y303239D01*
X506667D01*
X505667Y302239D01*
Y300240D01*
X506667Y299240D01*
X509666D01*
X511665D02*
Y300240D01*
X512665D01*
Y299240D01*
X511665D01*
M02*
